<?xml version="1.0" encoding="UTF-8"?>
<svg width="3300px" height="2200px" viewBox="0 0 3300 2200" xmlns="http://www.w3.org/2000/svg" xmlns:xlink="http://www.w3.org/1999/xlink" version="1.1">
 <!-- Generated by Pixelmator Pro 1.6.3 -->
 <g id="Notes">
  <path id="artboard" d="M0 0 L3300 0 3300 2200 0 2200 Z" fill="#ffffff" fill-opacity="1" stroke="none"/>
  <path id="path" d="M263 292 L3036 292" fill="none" stroke="#000000" stroke-width="0.5" stroke-opacity="1" stroke-linejoin="round"/>
  <defs>
   <text id="string" transform="matrix(1.0 0.0 0.0 1.0 262.0 307.0)" font-family="SFProDisplay-Bold, SF Pro Display" y="15.0" text-decoration="none" x="1.0" font-size="16">Weight/Scale Variations</text>
  </defs>
  <use id="Weight/Scale-Variations" xlink:href="#string" fill="#000000" fill-opacity="1" stroke="none"/>
  <defs>
   <text id="string-1" transform="matrix(1.0 0.0 0.0 1.0 526.07818603516 307.0)" font-family="SFProDisplay-Regular, SF Pro Display" y="15.0" text-decoration="none" x="1.6015625" font-size="16">Ultralight</text>
  </defs>
  <use id="Ultralight" xlink:href="#string-1" fill="#000000" fill-opacity="1" stroke="none"/>
  <defs>
   <text id="string-2" transform="matrix(1.0 0.0 0.0 1.0 837.30871582031 307.0)" font-family="SFProDisplay-Regular, SF Pro Display" y="15.0" text-decoration="none" x="1.19140625" font-size="16">Thin</text>
  </defs>
  <use id="Thin" xlink:href="#string-2" fill="#000000" fill-opacity="1" stroke="none"/>
  <defs>
   <text id="string-3" transform="matrix(1.0 0.0 0.0 1.0 1140.41906738281 307.0)" font-family="SFProDisplay-Regular, SF Pro Display" y="15.0" text-decoration="none" x="1.0546875" font-size="16">Light</text>
  </defs>
  <use id="Light" xlink:href="#string-3" fill="#000000" fill-opacity="1" stroke="none"/>
  <defs>
   <text id="string-4" transform="matrix(1.0 0.0 0.0 1.0 1421.88293457031 307.0)" font-family="SFProDisplay-Regular, SF Pro Display" y="15.0" text-decoration="none" x="1.38671875" font-size="16">Regular</text>
  </defs>
  <use id="Regular" xlink:href="#string-4" fill="#000000" fill-opacity="1" stroke="none"/>
  <defs>
   <text id="string-5" transform="matrix(1.0 0.0 0.0 1.0 1714.65771484375 307.0)" font-family="SFProDisplay-Regular, SF Pro Display" y="15.0" text-decoration="none" x="1.55078125" font-size="16">Medium</text>
  </defs>
  <use id="Medium" xlink:href="#string-5" fill="#000000" fill-opacity="1" stroke="none"/>
  <defs>
   <text id="string-6" transform="matrix(1.0 0.0 0.0 1.0 2008.10986328125 307.0)" font-family="SFProDisplay-Regular, SF Pro Display" y="15.0" text-decoration="none" x="1.35546875" font-size="16">Semibold</text>
  </defs>
  <use id="Semibold" xlink:href="#string-6" fill="#000000" fill-opacity="1" stroke="none"/>
  <defs>
   <text id="string-7" transform="matrix(1.0 0.0 0.0 1.0 2319.96044921875 307.0)" font-family="SFProDisplay-Regular, SF Pro Display" y="15.0" text-decoration="none" x="1.85546875" font-size="16">Bold</text>
  </defs>
  <use id="Bold" xlink:href="#string-7" fill="#000000" fill-opacity="1" stroke="none"/>
  <defs>
   <text id="string-8" transform="matrix(1.0 0.0 0.0 1.0 2615.76806640625 307.0)" font-family="SFProDisplay-Regular, SF Pro Display" y="15.0" text-decoration="none" x="1.5390625" font-size="16">Heavy</text>
  </defs>
  <use id="Heavy" xlink:href="#string-8" fill="#000000" fill-opacity="1" stroke="none"/>
  <defs>
   <text id="string-9" transform="matrix(1.0 0.0 0.0 1.0 2918.83740234375 307.0)" font-family="SFProDisplay-Regular, SF Pro Display" y="15.0" text-decoration="none" x="1.625" font-size="16">Black</text>
  </defs>
  <use id="Black" xlink:href="#string-9" fill="#000000" fill-opacity="1" stroke="none"/>
  <path id="path-1" d="M263 1903 L3036 1903" fill="none" stroke="#000000" stroke-width="0.5" stroke-opacity="1" stroke-linejoin="round"/>
  <g id="group">
   <path id="路径" d="M272.248 1933.83 C276.555 1933.83 280.139 1930.256 280.139 1925.949 280.139 1921.643 276.545 1918.068 272.238 1918.068 267.941 1918.068 264.367 1921.643 264.367 1925.949 264.367 1930.256 267.951 1933.83 272.248 1933.83 Z M272.248 1932.346 C268.703 1932.346 265.871 1929.504 265.871 1925.949 265.871 1922.395 268.693 1919.553 272.238 1919.553 275.793 1919.553 278.635 1922.395 278.645 1925.949 278.654 1929.504 275.803 1932.346 272.248 1932.346 Z M272.229 1929.572 C272.697 1929.572 272.971 1929.26 272.971 1928.742 L272.971 1926.682 275.197 1926.682 C275.695 1926.682 276.037 1926.428 276.037 1925.959 276.037 1925.48 275.715 1925.217 275.197 1925.217 L272.971 1925.217 272.971 1922.99 C272.971 1922.473 272.697 1922.15 272.229 1922.15 271.76 1922.15 271.506 1922.492 271.506 1922.99 L271.506 1925.217 269.299 1925.217 C268.781 1925.217 268.449 1925.48 268.449 1925.959 268.449 1926.428 268.801 1926.682 269.299 1926.682 L271.506 1926.682 271.506 1928.742 C271.506 1929.24 271.76 1929.572 272.229 1929.572 Z" fill="#000000" fill-opacity="1" stroke="none"/>
  </g>
  <g id="group-1">
   <path id="路径-1" d="M293.215 1935.91 C298.664 1935.91 303.176 1931.398 303.176 1925.949 303.176 1920.51 298.654 1915.988 293.205 1915.988 287.766 1915.988 283.254 1920.51 283.254 1925.949 283.254 1931.398 287.776 1935.91 293.215 1935.91 Z M293.215 1934.25 C288.606 1934.25 284.924 1930.559 284.924 1925.949 284.924 1921.35 288.596 1917.648 293.205 1917.648 297.815 1917.648 301.506 1921.35 301.516 1925.949 301.526 1930.559 297.824 1934.25 293.215 1934.25 Z M293.196 1930.588 C293.713 1930.588 294.026 1930.227 294.026 1929.66 L294.026 1926.77 297.082 1926.77 C297.629 1926.77 298.01 1926.486 298.01 1925.969 298.01 1925.441 297.649 1925.139 297.082 1925.139 L294.026 1925.139 294.026 1922.072 C294.026 1921.496 293.713 1921.145 293.196 1921.145 292.678 1921.145 292.385 1921.516 292.385 1922.072 L292.385 1925.139 289.338 1925.139 C288.772 1925.139 288.401 1925.441 288.401 1925.969 288.401 1926.486 288.791 1926.77 289.338 1926.77 L292.385 1926.77 292.385 1929.66 C292.385 1930.207 292.678 1930.588 293.196 1930.588 Z" fill="#000000" fill-opacity="1" stroke="none"/>
  </g>
  <g id="group-2">
   <path id="路径-2" d="M319.895 1938.674 C326.858 1938.674 332.619 1932.922 332.619 1925.959 332.619 1918.996 326.848 1913.244 319.885 1913.244 312.932 1913.244 307.18 1918.996 307.18 1925.959 307.18 1932.922 312.942 1938.674 319.895 1938.674 Z M319.895 1936.857 C313.86 1936.857 309.006 1931.994 309.006 1925.959 309.006 1919.924 313.85 1915.061 319.885 1915.061 325.93 1915.061 330.783 1919.924 330.793 1925.959 330.803 1931.994 325.94 1936.857 319.895 1936.857 Z M319.875 1931.936 C320.442 1931.936 320.793 1931.545 320.793 1930.939 L320.793 1926.867 325.031 1926.867 C325.617 1926.867 326.037 1926.535 326.037 1925.979 326.037 1925.402 325.647 1925.061 325.031 1925.061 L320.793 1925.061 320.793 1920.813 C320.793 1920.197 320.442 1919.807 319.875 1919.807 319.309 1919.807 318.987 1920.217 318.987 1920.813 L318.987 1925.061 314.758 1925.061 C314.143 1925.061 313.733 1925.402 313.733 1925.979 313.733 1926.535 314.162 1926.867 314.758 1926.867 L318.987 1926.867 318.987 1930.939 C318.987 1931.525 319.309 1931.936 319.875 1931.936 Z" fill="#000000" fill-opacity="1" stroke="none"/>
  </g>
  <defs>
   <text id="string-10" transform="matrix(1.0 0.0 0.0 1.0 262.0 1938.0)" font-family="SFProDisplay-Bold, SF Pro Display" y="15.0" text-decoration="none" x="1.0" font-size="16">Design Variations</text>
  </defs>
  <use id="Design-Variations" xlink:href="#string-10" fill="#000000" fill-opacity="1" stroke="none"/>
  <defs>
   <text id="string-11" transform="matrix(1.0 0.0 0.0 1.0 262.0 1956.0)" font-family="SFProDisplay-Regular, SF Pro Display" y="15.0" text-decoration="none" x="1.0" font-size="16">Symbols are supported in up to nine weights and three scales.</text>
  </defs>
  <use id="Symbols-are-supported-in-up-to-nine-weights-and-three-scales." xlink:href="#string-11" fill="#000000" fill-opacity="1" stroke="none"/>
  <defs>
   <text id="string-12" transform="matrix(1.0 0.0 0.0 1.0 262.0 1974.0)" font-family="SFProDisplay-Regular, SF Pro Display" y="15.0" text-decoration="none" x="1.0" font-size="16">For optimal layout with text and other symbols, vertically align</text>
  </defs>
  <use id="For-optimal-layout-with-text-and-other-symbols,-vertically-align" xlink:href="#string-12" fill="#000000" fill-opacity="1" stroke="none"/>
  <defs>
   <text id="string-13" transform="matrix(1.0 0.0 0.0 1.0 262.0 1992.0)" font-family="SFProDisplay-Regular, SF Pro Display" y="15.0" text-decoration="none" x="1.0" font-size="16">symbols with the adjacent text.</text>
  </defs>
  <use id="symbols-with-the-adjacent-text." xlink:href="#string-13" fill="#000000" fill-opacity="1" stroke="none"/>
  <path id="path-2" d="M776 1919 L779 1919 779 1933 776 1933 Z" fill="#00aeef" fill-opacity="1" stroke="none"/>
  <g id="group-3">
   <path id="路径-3" d="M789.527 1933 L791.373 1933 786.178 1918.908 784.439 1918.908 779.244 1933 781.09 1933 782.506 1928.967 788.111 1928.967 Z M785.279 1921.047 L785.338 1921.047 787.594 1927.473 783.023 1927.473 Z" fill="#000000" fill-opacity="1" stroke="none"/>
  </g>
  <path id="path-3" d="M791.617 1919 L794.617 1919 794.617 1933 791.617 1933 Z" fill="#00aeef" fill-opacity="1" stroke="none"/>
  <defs>
   <text id="string-14" transform="matrix(1.0 0.0 0.0 1.0 775.0 1938.0)" font-family="SFProDisplay-Bold, SF Pro Display" y="15.0" text-decoration="none" x="1.0" font-size="16">Margins</text>
  </defs>
  <use id="Margins" xlink:href="#string-14" fill="#000000" fill-opacity="1" stroke="none"/>
  <defs>
   <text id="string-15" transform="matrix(1.0 0.0 0.0 1.0 775.0 1956.0)" font-family="SFProDisplay-Regular, SF Pro Display" y="15.0" text-decoration="none" x="1.0" font-size="16">Leading and trailing margins on the left and right side of each symbol</text>
  </defs>
  <use id="Leading-and-trailing-margins-on-the-left-and-right-side-of-each-symbol" xlink:href="#string-15" fill="#000000" fill-opacity="1" stroke="none"/>
  <defs>
   <text id="string-16" transform="matrix(1.0 0.0 0.0 1.0 775.0 1974.0)" font-family="SFProDisplay-Regular, SF Pro Display" y="15.0" text-decoration="none" x="1.0" font-size="16">can be adjusted by modifying the width of the blue rectangles.</text>
  </defs>
  <use id="can-be-adjusted-by-modifying-the-width-of-the-blue-rectangles." xlink:href="#string-16" fill="#000000" fill-opacity="1" stroke="none"/>
  <defs>
   <text id="string-17" transform="matrix(1.0 0.0 0.0 1.0 775.0 1992.0)" font-family="SFProDisplay-Regular, SF Pro Display" y="15.0" text-decoration="none" x="1.0" font-size="16">Modifications are automatically applied proportionally to all</text>
  </defs>
  <use id="Modifications-are-automatically-applied-proportionally-to-all" xlink:href="#string-17" fill="#000000" fill-opacity="1" stroke="none"/>
  <defs>
   <text id="string-18" transform="matrix(1.0 0.0 0.0 1.0 775.0 2010.0)" font-family="SFProDisplay-Regular, SF Pro Display" y="15.0" text-decoration="none" x="1.0" font-size="16">scales and weights.</text>
  </defs>
  <use id="scales-and-weights." xlink:href="#string-18" fill="#000000" fill-opacity="1" stroke="none"/>
  <g id="group-4">
   <path id="路径-4" d="M1291.832 1936.115 L1293.375 1937.658 C1294.225 1938.488 1295.191 1938.42 1296.061 1937.463 L1306.275 1926.34 C1306.705 1926.633 1307.096 1926.623 1307.564 1926.525 L1308.609 1926.311 1309.303 1927.004 1309.254 1927.521 C1309.186 1928.049 1309.352 1928.469 1309.85 1928.967 L1310.66 1929.777 C1311.168 1930.285 1311.822 1930.314 1312.301 1929.836 L1315.553 1926.584 C1316.031 1926.105 1316.012 1925.451 1315.504 1924.943 L1314.684 1924.123 C1314.186 1923.625 1313.775 1923.449 1313.238 1923.527 L1312.711 1923.586 1312.057 1922.922 1312.34 1921.779 C1312.486 1921.213 1312.34 1920.744 1311.715 1920.139 L1309.303 1917.746 C1305.758 1914.221 1301.227 1914.328 1298.111 1917.463 1297.691 1917.893 1297.643 1918.479 1297.916 1918.908 1298.15 1919.279 1298.629 1919.504 1299.273 1919.338 1300.787 1918.957 1302.301 1919.074 1303.785 1920.08 L1303.16 1921.662 C1302.926 1922.248 1302.945 1922.727 1303.18 1923.166 L1292.018 1933.439 C1291.08 1934.309 1290.973 1935.256 1291.832 1936.115 Z M1299.674 1917.854 C1302.34 1915.861 1305.65 1916.174 1308.053 1918.586 L1310.68 1921.193 C1310.914 1921.428 1310.943 1921.613 1310.885 1921.906 L1310.504 1923.469 1312.076 1925.041 1313.043 1924.953 C1313.326 1924.924 1313.414 1924.943 1313.639 1925.168 L1314.264 1925.793 1311.51 1928.537 1310.885 1927.922 C1310.66 1927.697 1310.641 1927.6 1310.67 1927.316 L1310.758 1926.359 1309.195 1924.797 1307.574 1925.109 C1307.291 1925.168 1307.145 1925.168 1306.91 1924.924 L1304.732 1922.746 C1304.508 1922.512 1304.479 1922.375 1304.605 1922.053 L1305.553 1919.777 C1303.951 1918.244 1301.842 1917.395 1299.801 1918.049 1299.713 1918.078 1299.645 1918.059 1299.615 1918.02 1299.586 1917.971 1299.586 1917.922 1299.674 1917.854 Z M1293.102 1935.412 C1292.613 1934.914 1292.789 1934.611 1293.121 1934.309 L1304.078 1924.191 1305.309 1925.422 1295.152 1936.35 C1294.85 1936.682 1294.469 1936.779 1294.068 1936.379 Z" fill="#000000" fill-opacity="1" stroke="none"/>
  </g>
  <defs>
   <text id="string-19" transform="matrix(1.0 0.0 0.0 1.0 1288.0 1938.0)" font-family="SFProDisplay-Bold, SF Pro Display" y="15.0" text-decoration="none" x="1.0" font-size="16">Exporting</text>
  </defs>
  <use id="Exporting" xlink:href="#string-19" fill="#000000" fill-opacity="1" stroke="none"/>
  <defs>
   <text id="string-20" transform="matrix(1.0 0.0 0.0 1.0 1288.0 1956.0)" font-family="SFProDisplay-Regular, SF Pro Display" y="15.0" text-decoration="none" x="1.0" font-size="16">Symbols should be outlined when exporting to ensure the</text>
  </defs>
  <use id="Symbols-should-be-outlined-when-exporting-to-ensure-the" xlink:href="#string-20" fill="#000000" fill-opacity="1" stroke="none"/>
  <defs>
   <text id="string-21" transform="matrix(1.0 0.0 0.0 1.0 1288.0 1974.0)" font-family="SFProDisplay-Regular, SF Pro Display" y="15.0" text-decoration="none" x="1.0" font-size="16">design is preserved when submitting to Xcode.</text>
  </defs>
  <use id="design-is-preserved-when-submitting-to-Xcode." xlink:href="#string-21" fill="#000000" fill-opacity="1" stroke="none"/>
  <defs>
   <text id="string-22" transform="matrix(1.0 0.0 0.0 1.0 2949.703125 1918.0)" font-family="SFProDisplay-Regular, SF Pro Display" y="15.0" text-decoration="none" x="1.46875" font-size="16">Template v.1.0</text>
  </defs>
  <use id="Template-v.1.0" xlink:href="#string-22" fill="#000000" fill-opacity="1" stroke="none"/>
  <defs>
   <text id="string-23" transform="matrix(1.0 0.0 0.0 1.0 2796.4296875 1936.0)" font-family="SFProDisplay-Regular, SF Pro Display" y="15.0" text-decoration="none" x="1.4296875" font-size="16">Generated from arrow.up.arrow.down</text>
  </defs>
  <use id="Generated-from-arrow.up.arrow.down" xlink:href="#string-23" fill="#000000" fill-opacity="1" stroke="none"/>
  <defs>
   <text id="string-24" transform="matrix(1.0 0.0 0.0 1.0 2898.4453125 1954.0)" font-family="SFProDisplay-Regular, SF Pro Display" y="15.0" text-decoration="none" x="1.9140625" font-size="16">Typeset at 100 points</text>
  </defs>
  <use id="Typeset-at-100-points" xlink:href="#string-24" fill="#000000" fill-opacity="1" stroke="none"/>
  <defs>
   <text id="string-25" transform="matrix(1.0 0.0 0.0 1.0 262.0 711.0)" font-family="SFProDisplay-Regular, SF Pro Display" y="15.0" text-decoration="none" x="1.0" font-size="16">Small</text>
  </defs>
  <use id="Small" xlink:href="#string-25" fill="#000000" fill-opacity="1" stroke="none"/>
  <defs>
   <text id="string-26" transform="matrix(1.0 0.0 0.0 1.0 262.0 1141.0)" font-family="SFProDisplay-Regular, SF Pro Display" y="15.0" text-decoration="none" x="1.0" font-size="16">Medium</text>
  </defs>
  <use id="Medium-1" xlink:href="#string-26" fill="#000000" fill-opacity="1" stroke="none"/>
  <defs>
   <text id="string-27" transform="matrix(1.0 0.0 0.0 1.0 262.0 1571.0)" font-family="SFProDisplay-Regular, SF Pro Display" y="15.0" text-decoration="none" x="1.0" font-size="16">Large</text>
  </defs>
  <use id="Large" xlink:href="#string-27" fill="#000000" fill-opacity="1" stroke="none"/>
 </g>
 <g id="Guides">
  <g id="H-reference">
   <path id="路径-5" d="M393.932 696 L396.666 696 369.566 625.541 367.076 625.541 339.977 696 342.662 696 351.94 671.537 384.703 671.537 Z M368.199 628.91 L368.443 628.91 383.824 669.291 352.818 669.291 Z" fill="#27aae1" fill-opacity="1" stroke="none"/>
  </g>
  <path id="Baseline-S" d="M263 696 L3036 696" fill="none" stroke="#27aae1" stroke-width="0.577" stroke-opacity="1" stroke-linejoin="round"/>
  <path id="Capline-S" d="M263 625.541 L3036 625.541" fill="none" stroke="#27aae1" stroke-width="0.577" stroke-opacity="1" stroke-linejoin="round"/>
  <g id="H-reference-1">
   <path id="路径-6" d="M393.932 1126 L396.666 1126 369.566 1055.541 367.076 1055.541 339.977 1126 342.662 1126 351.94 1101.537 384.703 1101.537 Z M368.199 1058.91 L368.443 1058.91 383.824 1099.291 352.818 1099.291 Z" fill="#27aae1" fill-opacity="1" stroke="none"/>
  </g>
  <path id="Baseline-M" d="M263 1126 L3036 1126" fill="none" stroke="#27aae1" stroke-width="0.577" stroke-opacity="1" stroke-linejoin="round"/>
  <path id="Capline-M" d="M263 1055.54 L3036 1055.54" fill="none" stroke="#27aae1" stroke-width="0.577" stroke-opacity="1" stroke-linejoin="round"/>
  <g id="H-reference-2">
   <path id="路径-7" d="M393.932 1556 L396.666 1556 369.566 1485.541 367.076 1485.541 339.977 1556 342.662 1556 351.94 1531.537 384.703 1531.537 Z M368.199 1488.91 L368.443 1488.91 383.824 1529.291 352.818 1529.291 Z" fill="#27aae1" fill-opacity="1" stroke="none"/>
  </g>
  <path id="Baseline-L" d="M263 1556 L3036 1556" fill="none" stroke="#27aae1" stroke-width="0.577" stroke-opacity="1" stroke-linejoin="round"/>
  <path id="Capline-L" d="M263 1485.54 L3036 1485.54" fill="none" stroke="#27aae1" stroke-width="0.577" stroke-opacity="1" stroke-linejoin="round"/>
  <path id="left-margin" d="M1379.68 1030.79 L1392.131 1030.79 1392.131 1150.126 1379.68 1150.126 Z" fill="#00aeef" fill-opacity="1" stroke="none"/>
  <path id="right-margin" d="M1507.56 1030.79 L1520.011 1030.79 1520.011 1150.126 1507.56 1150.126 Z" fill="#00aeef" fill-opacity="1" stroke="none"/>
 </g>
 <g id="Symbols">
  <g id="Black-L">
   <path id="路径-8" d="M2967.306 1581.635 C2970.382 1581.635 2973.654 1580.414 2975.705 1578.363 L3008.761 1545.014 C3011.056 1542.768 3012.326 1539.789 3012.326 1536.859 3012.326 1530.268 3007.638 1525.873 3001.486 1525.873 2997.921 1525.873 2995.431 1527.436 2993.332 1529.584 L2984.347 1538.813 2978.097 1546.674 2978.732 1532.953 2978.732 1471.918 C2978.732 1464.691 2974.191 1459.906 2967.306 1459.906 2960.47 1459.906 2955.88 1464.691 2955.88 1471.918 L2955.88 1532.953 2956.515 1546.674 2958.908 1578.363 C2960.959 1580.414 2964.23 1581.635 2967.306 1581.635 Z M2899.386 1581.635 C2906.271 1581.635 2910.861 1576.85 2910.861 1569.623 L2910.861 1508.588 2910.177 1494.867 2907.785 1463.178 C2905.783 1461.127 2902.462 1459.906 2899.386 1459.906 2896.31 1459.906 2893.039 1461.127 2891.037 1463.178 L2858.029 1496.527 C2855.734 1498.773 2854.464 1501.752 2854.464 1504.682 2854.464 1511.273 2859.103 1515.668 2865.304 1515.668 2868.869 1515.668 2871.359 1514.105 2873.41 1511.957 L2882.345 1502.729 2888.644 1494.867 2887.96 1508.588 2887.96 1569.623 C2887.96 1576.85 2892.55 1581.635 2899.386 1581.635 Z" fill="#000000" fill-opacity="1" stroke="none"/>
  </g>
  <g id="Heavy-L">
   <path id="路径-9" d="M2670.184 1581.244 C2672.869 1581.244 2675.652 1580.17 2677.459 1578.363 L2711.444 1544.086 C2713.397 1542.133 2714.471 1539.545 2714.471 1537.006 2714.471 1531.342 2710.467 1527.533 2705.096 1527.533 2702.069 1527.533 2699.871 1528.803 2698.113 1530.658 L2686.785 1542.279 2679.412 1551.264 2680.047 1537.25 2680.047 1470.551 C2680.047 1464.398 2676.092 1460.297 2670.184 1460.297 2664.324 1460.297 2660.369 1464.398 2660.369 1470.551 L2660.369 1537.25 2661.004 1551.264 2662.957 1578.363 C2664.715 1580.17 2667.547 1581.244 2670.184 1581.244 Z M2603.143 1581.244 C2609.051 1581.244 2613.006 1577.143 2613.006 1570.99 L2613.006 1504.291 2612.371 1490.277 2610.369 1463.178 C2608.612 1461.371 2605.78 1460.297 2603.143 1460.297 2600.457 1460.297 2597.674 1461.371 2595.867 1463.178 L2561.981 1497.455 C2560.028 1499.408 2558.905 1501.996 2558.905 1504.535 2558.905 1510.199 2562.908 1514.008 2568.28 1514.008 2571.307 1514.008 2573.504 1512.738 2575.262 1510.883 L2586.541 1499.262 2593.914 1490.277 2593.28 1504.291 2593.28 1570.99 C2593.28 1577.143 2597.235 1581.244 2603.143 1581.244 Z" fill="#000000" fill-opacity="1" stroke="none"/>
  </g>
  <g id="Bold-L">
   <path id="路径-10" d="M2373.035 1580.805 C2375.232 1580.805 2377.478 1579.926 2378.992 1578.363 L2414.002 1543.012 C2415.564 1541.449 2416.492 1539.252 2416.492 1537.201 2416.492 1532.514 2413.171 1529.34 2408.728 1529.34 2406.287 1529.34 2404.48 1530.365 2403.015 1531.879 L2389.099 1546.137 2380.505 1556.342 2381.091 1542.035 2381.091 1469.086 C2381.091 1464.105 2377.82 1460.736 2373.035 1460.736 2368.201 1460.736 2364.929 1464.105 2364.929 1469.086 L2364.929 1542.035 2365.564 1556.342 2367.078 1578.363 C2368.591 1579.926 2370.838 1580.805 2373.035 1580.805 Z M2306.921 1580.805 C2311.707 1580.805 2314.978 1577.436 2314.978 1572.455 L2314.978 1499.506 2314.392 1485.199 2312.878 1463.178 C2311.365 1461.615 2309.119 1460.736 2306.921 1460.736 2304.724 1460.736 2302.478 1461.615 2300.916 1463.178 L2265.955 1498.529 C2264.392 1500.092 2263.464 1502.289 2263.464 1504.34 2263.464 1509.027 2266.785 1512.201 2271.228 1512.201 2273.669 1512.201 2275.476 1511.176 2276.941 1509.662 L2290.857 1495.404 2299.451 1485.199 2298.816 1499.506 2298.816 1572.455 C2298.816 1577.436 2302.087 1580.805 2306.921 1580.805 Z" fill="#000000" fill-opacity="1" stroke="none"/>
  </g>
  <g id="Semibold-L">
   <path id="路径-11" d="M2075.984 1580.512 C2077.888 1580.512 2079.744 1579.779 2081.111 1578.412 L2116.804 1542.279 C2118.123 1540.961 2118.904 1539.057 2118.904 1537.348 2118.904 1533.295 2116.121 1530.609 2112.263 1530.609 2110.213 1530.609 2108.699 1531.439 2107.429 1532.709 L2091.707 1548.773 2082.283 1559.809 2082.869 1545.355 2082.869 1468.061 C2082.869 1463.91 2080.086 1461.029 2075.984 1461.029 2071.931 1461.029 2069.148 1463.91 2069.148 1468.061 L2069.148 1545.355 2069.734 1559.809 2070.906 1578.412 C2072.273 1579.779 2074.129 1580.512 2075.984 1580.512 Z M2010.554 1580.512 C2014.607 1580.512 2017.39 1577.631 2017.39 1573.48 L2017.39 1496.186 2016.804 1481.732 2015.632 1463.129 C2014.265 1461.762 2012.41 1461.029 2010.554 1461.029 2008.65 1461.029 2006.795 1461.762 2005.427 1463.129 L1969.783 1499.262 C1968.416 1500.58 1967.634 1502.484 1967.634 1504.193 1967.634 1508.246 1970.466 1510.932 1974.275 1510.932 1976.326 1510.932 1977.888 1510.102 1979.109 1508.832 L1994.832 1492.768 2004.255 1481.732 2003.67 1496.186 2003.67 1573.48 C2003.67 1577.631 2006.453 1580.512 2010.554 1580.512 Z" fill="#000000" fill-opacity="1" stroke="none"/>
  </g>
  <g id="Medium-L">
   <path id="路径-12" d="M1779.055 1580.268 C1780.666 1580.268 1782.278 1579.633 1783.45 1578.412 L1819.68 1541.742 C1820.852 1540.57 1821.536 1538.91 1821.536 1537.445 1821.536 1533.93 1819.094 1531.586 1815.774 1531.586 1813.967 1531.586 1812.649 1532.27 1811.575 1533.295 L1794.436 1550.775 1784.426 1562.396 1785.012 1547.895 1785.012 1467.328 C1785.012 1463.764 1782.571 1461.273 1779.055 1461.273 1775.54 1461.273 1773.098 1463.764 1773.098 1467.328 L1773.098 1547.895 1773.684 1562.396 1774.612 1578.412 C1775.832 1579.633 1777.395 1580.268 1779.055 1580.268 Z M1714.065 1580.268 C1717.581 1580.268 1720.022 1577.777 1720.022 1574.213 L1720.022 1493.646 1719.436 1479.145 1718.508 1463.129 C1717.288 1461.908 1715.725 1461.273 1714.065 1461.273 1712.454 1461.273 1710.842 1461.908 1709.67 1463.129 L1673.44 1499.799 C1672.268 1500.971 1671.584 1502.631 1671.584 1504.096 1671.584 1507.611 1674.026 1509.955 1677.395 1509.955 1679.153 1509.955 1680.471 1509.271 1681.545 1508.246 L1698.635 1490.766 1708.694 1479.145 1708.108 1493.646 1708.108 1574.213 C1708.108 1577.777 1710.549 1580.268 1714.065 1580.268 Z" fill="#000000" fill-opacity="1" stroke="none"/>
  </g>
  <g id="Regular-L">
   <path id="路径-13" d="M1482.023 1579.975 C1483.342 1579.975 1484.562 1579.486 1485.539 1578.412 L1522.502 1541.01 C1523.381 1540.082 1523.967 1538.715 1523.967 1537.543 1523.967 1534.711 1522.014 1532.855 1519.279 1532.855 1517.912 1532.855 1516.838 1533.295 1515.959 1534.125 L1497.062 1553.412 1486.174 1565.717 1486.76 1551.166 1486.76 1466.303 C1486.76 1463.568 1484.758 1461.566 1482.023 1461.566 1479.24 1461.566 1477.287 1463.568 1477.287 1466.303 L1477.287 1551.166 1477.824 1565.717 1478.459 1578.412 C1479.484 1579.486 1480.705 1579.975 1482.023 1579.975 Z M1417.668 1579.975 C1420.451 1579.975 1422.404 1577.973 1422.404 1575.238 L1422.404 1490.375 1421.867 1475.824 1421.232 1463.129 C1420.207 1462.055 1418.986 1461.566 1417.668 1461.566 1416.349 1461.566 1415.129 1462.055 1414.103 1463.129 L1377.189 1500.531 C1376.262 1501.459 1375.724 1502.826 1375.724 1503.998 1375.724 1506.83 1377.678 1508.686 1380.412 1508.686 1381.779 1508.686 1382.853 1508.246 1383.683 1507.416 L1402.629 1488.129 1413.469 1475.824 1412.932 1490.375 1412.932 1575.238 C1412.932 1577.973 1414.885 1579.975 1417.668 1579.975 Z" fill="#000000" fill-opacity="1" stroke="none"/>
  </g>
  <g id="Light-L">
   <path id="路径-14" d="M1185.286 1579.535 C1186.312 1579.535 1187.19 1579.145 1187.972 1578.363 L1225.667 1540.473 C1226.351 1539.789 1226.741 1538.813 1226.741 1537.934 1226.741 1535.785 1225.276 1534.369 1223.226 1534.369 1222.2 1534.369 1221.37 1534.711 1220.735 1535.297 L1200.179 1556.098 1188.411 1568.891 1188.851 1554.73 1188.851 1465.521 C1188.851 1463.52 1187.386 1462.006 1185.286 1462.006 1183.235 1462.006 1181.771 1463.52 1181.771 1465.521 L1181.771 1554.73 1182.21 1568.891 1182.649 1578.363 C1183.431 1579.145 1184.31 1579.535 1185.286 1579.535 Z M1120.979 1579.535 C1123.03 1579.535 1124.495 1578.021 1124.495 1576.02 L1124.495 1486.811 1124.104 1472.65 1123.616 1463.178 C1122.835 1462.396 1121.956 1462.006 1120.979 1462.006 1119.954 1462.006 1119.075 1462.396 1118.343 1463.178 L1080.647 1501.068 C1079.915 1501.752 1079.524 1502.729 1079.524 1503.607 1079.524 1505.756 1081.038 1507.172 1083.04 1507.172 1084.065 1507.172 1084.944 1506.83 1085.53 1506.244 L1106.087 1485.443 1117.854 1472.65 1117.415 1486.811 1117.415 1576.02 C1117.415 1578.021 1118.929 1579.535 1120.979 1579.535 Z" fill="#000000" fill-opacity="1" stroke="none"/>
  </g>
  <g id="Thin-L">
   <path id="路径-15" d="M888.6 1578.949 C889.186 1578.949 889.626 1578.754 890.016 1578.314 L928.786 1539.789 C929.177 1539.398 929.372 1538.959 929.372 1538.373 929.372 1537.152 928.493 1536.371 927.419 1536.371 926.833 1536.371 926.296 1536.566 925.954 1536.859 L903.2 1559.662 890.309 1572.895 890.554 1559.369 890.554 1464.545 C890.554 1463.471 889.723 1462.592 888.6 1462.592 887.477 1462.592 886.647 1463.471 886.647 1464.545 L886.647 1559.369 886.843 1572.895 887.136 1578.314 C887.575 1578.754 888.014 1578.949 888.6 1578.949 Z M824.245 1578.949 C825.368 1578.949 826.198 1578.07 826.198 1576.996 L826.198 1482.172 826.003 1468.646 825.71 1463.227 C825.27 1462.787 824.831 1462.592 824.245 1462.592 823.659 1462.592 823.219 1462.787 822.829 1463.227 L784.108 1501.752 C783.669 1502.143 783.474 1502.582 783.474 1503.168 783.474 1504.389 784.352 1505.17 785.427 1505.17 786.013 1505.17 786.599 1504.975 786.891 1504.682 L809.645 1481.879 822.536 1468.646 822.292 1482.172 822.292 1576.996 C822.292 1578.07 823.122 1578.949 824.245 1578.949 Z" fill="#000000" fill-opacity="1" stroke="none"/>
  </g>
  <g id="Ultralight-L">
   <path id="路径-16" d="M591.889 1578.656 C592.279 1578.656 592.475 1578.51 592.719 1578.314 L631.977 1539.447 C632.221 1539.203 632.318 1539.008 632.318 1538.617 632.318 1537.885 631.781 1537.396 631.195 1537.396 630.805 1537.396 630.414 1537.494 630.268 1537.689 L606.391 1561.518 592.914 1574.896 593.012 1561.762 593.012 1464.008 C593.012 1463.471 592.523 1462.885 591.889 1462.885 591.254 1462.885 590.766 1463.471 590.766 1464.008 L590.766 1561.762 590.863 1574.896 591.059 1578.314 C591.303 1578.51 591.498 1578.656 591.889 1578.656 Z M527.533 1578.656 C528.217 1578.656 528.705 1578.07 528.705 1577.533 L528.705 1479.779 528.607 1466.645 528.363 1463.227 C528.168 1463.031 527.924 1462.885 527.533 1462.885 527.191 1462.885 526.947 1463.031 526.703 1463.227 L487.445 1502.094 C487.201 1502.338 487.104 1502.533 487.104 1502.924 487.104 1503.656 487.689 1504.145 488.227 1504.145 488.617 1504.145 489.008 1504.047 489.203 1503.852 L513.08 1480.023 526.508 1466.645 526.41 1479.779 526.41 1577.533 C526.41 1578.07 526.898 1578.656 527.533 1578.656 Z" fill="#000000" fill-opacity="1" stroke="none"/>
  </g>
  <g id="Black-M">
   <path id="路径-17" d="M2960.229 1138.256 C2963.012 1138.256 2966.04 1137.133 2967.797 1135.375 L2992.602 1110.57 C2994.702 1108.52 2995.825 1105.932 2995.825 1103.197 2995.825 1097.289 2991.577 1093.285 2986.108 1093.285 2982.836 1093.285 2980.59 1094.848 2978.686 1096.801 L2973.999 1101.586 2970.092 1106.518 2970.581 1096.264 2970.581 1054.271 C2970.581 1047.631 2966.479 1043.285 2960.229 1043.285 2953.979 1043.285 2949.877 1047.631 2949.877 1054.271 L2949.877 1096.264 2950.366 1106.518 2952.661 1135.375 C2954.418 1137.133 2957.446 1138.256 2960.229 1138.256 Z M2906.469 1138.256 C2912.719 1138.256 2916.821 1133.91 2916.821 1127.27 L2916.821 1085.277 2916.381 1075.023 2914.038 1046.166 C2912.28 1044.408 2909.252 1043.285 2906.469 1043.285 2903.735 1043.285 2900.708 1044.408 2898.901 1046.166 L2874.194 1070.971 C2872.094 1073.021 2870.971 1075.609 2870.971 1078.344 2870.971 1084.252 2875.219 1088.256 2880.688 1088.256 2883.959 1088.256 2886.254 1086.693 2888.11 1084.74 L2892.749 1079.955 2896.606 1075.023 2896.167 1085.277 2896.167 1127.27 C2896.167 1133.91 2900.268 1138.256 2906.469 1138.256 Z" fill="#000000" fill-opacity="1" stroke="none"/>
  </g>
  <g id="Heavy-M">
   <path id="路径-18" d="M2663.056 1137.914 C2665.498 1137.914 2668.037 1136.938 2669.599 1135.375 L2695.234 1109.691 C2696.992 1107.885 2698.017 1105.639 2698.017 1103.295 2698.017 1098.168 2694.355 1094.701 2689.57 1094.701 2686.738 1094.701 2684.785 1095.971 2683.174 1097.631 L2676.338 1104.613 2671.504 1110.668 2671.992 1100.072 2671.992 1053.002 C2671.992 1047.338 2668.428 1043.627 2663.056 1043.627 2657.685 1043.627 2654.121 1047.338 2654.121 1053.002 L2654.121 1100.072 2654.609 1110.668 2656.513 1135.375 C2658.076 1136.938 2660.664 1137.914 2663.056 1137.914 Z M2610.224 1137.914 C2615.595 1137.914 2619.16 1134.203 2619.16 1128.539 L2619.16 1081.469 2618.672 1070.873 2616.767 1046.166 C2615.205 1044.604 2612.617 1043.627 2610.224 1043.627 2607.832 1043.627 2605.244 1044.604 2603.681 1046.166 L2578.144 1071.85 C2576.338 1073.656 2575.361 1075.902 2575.361 1078.246 2575.361 1083.373 2579.023 1086.84 2583.808 1086.84 2586.592 1086.84 2588.545 1085.57 2590.205 1083.91 L2596.943 1076.928 2601.777 1070.873 2601.289 1081.469 2601.289 1128.539 C2601.289 1134.203 2604.853 1137.914 2610.224 1137.914 Z" fill="#000000" fill-opacity="1" stroke="none"/>
  </g>
  <g id="Bold-M">
   <path id="路径-19" d="M2365.829 1137.572 C2367.831 1137.572 2369.93 1136.791 2371.249 1135.424 L2397.762 1108.666 C2399.227 1107.201 2400.057 1105.297 2400.057 1103.393 2400.057 1099.145 2397.03 1096.264 2393.026 1096.264 2390.78 1096.264 2389.169 1097.24 2387.801 1098.607 L2378.622 1108.031 2372.713 1115.258 2373.202 1104.32 2373.202 1051.635 C2373.202 1047.045 2370.223 1043.969 2365.829 1043.969 2361.483 1043.969 2358.504 1047.045 2358.504 1051.635 L2358.504 1104.32 2358.993 1115.258 2360.458 1135.424 C2361.776 1136.791 2363.875 1137.572 2365.829 1137.572 Z M2314.022 1137.572 C2318.417 1137.572 2321.395 1134.496 2321.395 1129.906 L2321.395 1077.221 2320.907 1066.283 2319.442 1046.117 C2318.124 1044.75 2316.024 1043.969 2314.022 1043.969 2312.069 1043.969 2309.969 1044.75 2308.651 1046.117 L2282.186 1072.875 C2280.721 1074.34 2279.891 1076.244 2279.891 1078.148 2279.891 1082.396 2282.918 1085.277 2286.874 1085.277 2289.168 1085.277 2290.78 1084.301 2292.098 1082.934 L2301.278 1073.51 2307.186 1066.283 2306.698 1077.221 2306.698 1129.906 C2306.698 1134.496 2309.676 1137.572 2314.022 1137.572 Z" fill="#000000" fill-opacity="1" stroke="none"/>
  </g>
  <g id="Semibold-M">
   <path id="路径-20" d="M2068.807 1137.328 C2070.516 1137.328 2072.225 1136.645 2073.445 1135.424 L2100.545 1107.982 C2101.766 1106.713 2102.498 1105.053 2102.498 1103.441 2102.498 1099.828 2099.91 1097.387 2096.444 1097.387 2094.539 1097.387 2093.172 1098.119 2092.049 1099.291 L2081.209 1110.424 2074.569 1118.383 2075.057 1107.25 2075.057 1050.658 C2075.057 1046.85 2072.518 1044.213 2068.807 1044.213 2065.096 1044.213 2062.557 1046.85 2062.557 1050.658 L2062.557 1107.25 2063.045 1118.383 2064.168 1135.424 C2065.34 1136.645 2067.098 1137.328 2068.807 1137.328 Z M2017.684 1137.328 C2021.395 1137.328 2023.983 1134.691 2023.983 1130.883 L2023.983 1074.291 2023.445 1063.158 2022.322 1046.117 C2021.151 1044.896 2019.393 1044.213 2017.684 1044.213 2015.975 1044.213 2014.266 1044.896 2013.045 1046.117 L1985.994 1073.559 C1984.774 1074.828 1984.041 1076.488 1984.041 1078.1 1984.041 1081.713 1986.58 1084.154 1990.047 1084.154 1991.951 1084.154 1993.318 1083.422 1994.49 1082.25 L2005.281 1071.117 2011.922 1063.158 2011.434 1074.291 2011.434 1130.883 C2011.434 1134.691 2013.973 1137.328 2017.684 1137.328 Z" fill="#000000" fill-opacity="1" stroke="none"/>
  </g>
  <g id="Medium-M">
   <path id="路径-21" d="M1771.829 1137.133 C1773.343 1137.133 1774.808 1136.547 1775.882 1135.424 L1803.421 1107.445 C1804.495 1106.371 1805.13 1104.857 1805.13 1103.539 1805.13 1100.316 1802.884 1098.168 1799.856 1098.168 1798.245 1098.168 1797.024 1098.803 1796.048 1099.779 L1783.938 1112.182 1776.761 1120.727 1777.249 1109.447 1777.249 1049.926 C1777.249 1046.654 1775.052 1044.408 1771.829 1044.408 1768.606 1044.408 1766.409 1046.654 1766.409 1049.926 L1766.409 1109.447 1766.897 1120.727 1767.776 1135.424 C1768.899 1136.547 1770.364 1137.133 1771.829 1137.133 Z M1721.292 1137.133 C1724.466 1137.133 1726.712 1134.887 1726.712 1131.615 L1726.712 1072.094 1726.224 1060.814 1725.296 1046.117 C1724.222 1044.994 1722.757 1044.408 1721.292 1044.408 1719.778 1044.408 1718.313 1044.994 1717.239 1046.117 L1689.7 1074.096 C1688.626 1075.17 1687.991 1076.684 1687.991 1078.002 1687.991 1081.225 1690.188 1083.373 1693.265 1083.373 1694.876 1083.373 1696.097 1082.738 1697.073 1081.762 L1709.134 1069.359 1716.36 1060.814 1715.823 1072.094 1715.823 1131.615 C1715.823 1134.887 1718.069 1137.133 1721.292 1137.133 Z" fill="#000000" fill-opacity="1" stroke="none"/>
  </g>
  <g id="Regular-M">
   <path id="路径-22" d="M1474.797 1136.889 C1475.969 1136.889 1477.092 1136.449 1478.069 1135.473 L1506.242 1106.762 C1507.073 1105.932 1507.561 1104.662 1507.561 1103.588 1507.561 1101 1505.803 1099.242 1503.264 1099.242 1501.994 1099.242 1501.067 1099.682 1500.285 1100.463 L1486.565 1114.525 1478.655 1123.754 1479.143 1112.328 1479.143 1048.998 C1479.143 1046.459 1477.336 1044.652 1474.797 1044.652 1472.258 1044.652 1470.403 1046.459 1470.403 1048.998 L1470.403 1112.328 1470.94 1123.754 1471.526 1135.473 C1472.453 1136.449 1473.577 1136.889 1474.797 1136.889 Z M1424.944 1136.889 C1427.483 1136.889 1429.289 1135.082 1429.289 1132.543 L1429.289 1069.213 1428.801 1057.787 1428.166 1046.068 C1427.239 1045.092 1426.116 1044.652 1424.944 1044.652 1423.723 1044.652 1422.6 1045.092 1421.672 1046.068 L1393.498 1074.779 C1392.668 1075.609 1392.131 1076.879 1392.131 1077.953 1392.131 1080.541 1393.889 1082.299 1396.428 1082.299 1397.698 1082.299 1398.674 1081.859 1399.407 1081.078 L1413.176 1067.016 1421.086 1057.787 1420.549 1069.213 1420.549 1132.543 C1420.549 1135.082 1422.405 1136.889 1424.944 1136.889 Z" fill="#000000" fill-opacity="1" stroke="none"/>
  </g>
  <g id="Light-M">
   <path id="路径-23" d="M1178.088 1136.498 C1178.967 1136.498 1179.797 1136.156 1180.529 1135.424 L1209.387 1106.273 C1210.021 1105.639 1210.412 1104.711 1210.412 1103.881 1210.412 1101.928 1209.045 1100.609 1207.14 1100.609 1206.213 1100.609 1205.431 1100.951 1204.894 1101.537 L1189.66 1116.967 1180.969 1126.635 1181.359 1115.502 1181.359 1048.314 C1181.359 1046.41 1179.992 1045.043 1178.088 1045.043 1176.135 1045.043 1174.767 1046.41 1174.767 1048.314 L1174.767 1115.502 1175.158 1126.635 1175.598 1135.424 C1176.33 1136.156 1177.16 1136.498 1178.088 1136.498 Z M1128.185 1136.498 C1130.139 1136.498 1131.506 1135.131 1131.506 1133.227 L1131.506 1066.039 1131.115 1054.906 1130.676 1046.117 C1129.943 1045.385 1129.113 1045.043 1128.185 1045.043 1127.307 1045.043 1126.476 1045.385 1125.744 1046.117 L1096.887 1075.268 C1096.252 1075.902 1095.861 1076.83 1095.861 1077.66 1095.861 1079.613 1097.228 1080.932 1099.084 1080.932 1100.06 1080.932 1100.842 1080.59 1101.379 1080.004 L1116.613 1064.574 1125.305 1054.906 1124.914 1066.039 1124.914 1133.227 C1124.914 1135.131 1126.281 1136.498 1128.185 1136.498 Z" fill="#000000" fill-opacity="1" stroke="none"/>
  </g>
  <g id="Thin-M">
   <path id="路径-24" d="M881.325 1135.961 C881.911 1135.961 882.35 1135.766 882.741 1135.375 L912.526 1105.688 C912.868 1105.297 913.112 1104.857 913.112 1104.32 913.112 1103.197 912.282 1102.416 911.257 1102.416 910.671 1102.416 910.182 1102.611 909.889 1102.904 L892.751 1120.141 882.985 1130.346 883.18 1119.701 883.18 1047.387 C883.18 1046.361 882.399 1045.58 881.325 1045.58 880.251 1045.58 879.469 1046.361 879.469 1047.387 L879.469 1119.701 879.714 1130.346 879.958 1135.375 C880.348 1135.766 880.788 1135.961 881.325 1135.961 Z M831.471 1135.961 C832.546 1135.961 833.327 1135.18 833.327 1134.154 L833.327 1061.84 833.132 1051.195 832.887 1046.166 C832.448 1045.775 832.057 1045.58 831.471 1045.58 830.934 1045.58 830.495 1045.775 830.104 1046.166 L800.319 1075.854 C799.928 1076.244 799.733 1076.684 799.733 1077.221 799.733 1078.344 800.563 1079.125 801.589 1079.125 802.126 1079.125 802.614 1078.93 802.956 1078.637 L820.094 1061.4 829.86 1051.195 829.616 1061.84 829.616 1134.154 C829.616 1135.18 830.397 1135.961 831.471 1135.961 Z" fill="#000000" fill-opacity="1" stroke="none"/>
  </g>
  <g id="Ultralight-M">
   <path id="路径-25" d="M584.638 1135.717 C585.029 1135.717 585.224 1135.619 585.468 1135.375 L615.742 1105.346 C615.986 1105.102 616.083 1104.906 616.083 1104.516 616.083 1103.832 615.546 1103.344 614.96 1103.344 614.618 1103.344 614.228 1103.441 614.081 1103.637 L595.917 1121.801 585.663 1132.152 585.761 1121.85 585.761 1046.947 C585.761 1046.361 585.322 1045.824 584.638 1045.824 584.003 1045.824 583.515 1046.361 583.515 1046.947 L583.515 1121.85 583.613 1132.152 583.808 1135.375 C584.052 1135.619 584.296 1135.717 584.638 1135.717 Z M534.784 1135.717 C535.419 1135.717 535.907 1135.18 535.907 1134.594 L535.907 1059.691 535.81 1049.389 535.615 1046.166 C535.37 1045.922 535.126 1045.824 534.784 1045.824 534.443 1045.824 534.198 1045.922 533.954 1046.166 L503.681 1076.195 C503.437 1076.439 503.339 1076.635 503.339 1077.025 503.339 1077.709 503.876 1078.197 504.462 1078.197 504.804 1078.197 505.195 1078.1 505.341 1077.904 L523.505 1059.74 533.759 1049.389 533.661 1059.691 533.661 1134.594 C533.661 1135.18 534.15 1135.717 534.784 1135.717 Z" fill="#000000" fill-opacity="1" stroke="none"/>
  </g>
  <g id="Black-S">
   <path id="路径-26" d="M2954.4 697.953 C2956.548 697.953 2958.892 697.074 2960.259 695.707 L2979.742 676.225 C2981.353 674.613 2982.232 672.611 2982.232 670.512 2982.232 665.922 2978.96 662.846 2974.712 662.846 2972.173 662.846 2970.416 664.018 2968.951 665.531 L2965.142 669.438 2962.017 673.393 2962.408 665.336 2962.408 632.084 C2962.408 626.957 2959.234 623.588 2954.4 623.588 2949.566 623.588 2946.392 626.957 2946.392 632.084 L2946.392 665.336 2946.783 673.393 2948.541 695.707 C2949.908 697.074 2952.251 697.953 2954.4 697.953 Z M2912.359 697.953 C2917.193 697.953 2920.367 694.584 2920.367 689.457 L2920.367 656.205 2919.976 648.148 2918.218 625.834 C2916.851 624.467 2914.507 623.588 2912.359 623.588 2910.21 623.588 2907.867 624.467 2906.5 625.834 L2887.066 645.316 C2885.455 646.928 2884.576 648.93 2884.576 651.029 2884.576 655.619 2887.847 658.695 2892.095 658.695 2894.634 658.695 2896.392 657.523 2897.857 656.01 L2901.617 652.104 2904.742 648.148 2904.351 656.205 2904.351 689.457 C2904.351 694.584 2907.525 697.953 2912.359 697.953 Z" fill="#000000" fill-opacity="1" stroke="none"/>
  </g>
  <g id="Heavy-S">
   <path id="路径-27" d="M2657.367 697.758 C2659.222 697.758 2661.273 696.977 2662.494 695.707 L2682.513 675.59 C2683.929 674.174 2684.711 672.367 2684.711 670.561 2684.711 666.508 2681.83 663.773 2678.07 663.773 2675.873 663.773 2674.31 664.75 2673.041 666.068 L2667.767 671.488 2664.007 676.176 2664.398 667.875 2664.398 631.205 C2664.398 626.762 2661.566 623.783 2657.367 623.783 2653.119 623.783 2650.287 626.762 2650.287 631.205 L2650.287 667.875 2650.677 676.176 2652.191 695.707 C2653.412 696.977 2655.462 697.758 2657.367 697.758 Z M2616.009 697.758 C2620.257 697.758 2623.041 694.779 2623.041 690.336 L2623.041 653.666 2622.65 645.365 2621.185 625.834 C2619.916 624.564 2617.914 623.783 2616.009 623.783 2614.105 623.783 2612.054 624.564 2610.833 625.834 L2590.863 645.951 C2589.447 647.367 2588.666 649.174 2588.666 650.98 2588.666 655.033 2591.546 657.768 2595.306 657.768 2597.552 657.768 2599.066 656.791 2600.384 655.473 L2605.609 650.053 2609.369 645.365 2608.978 653.666 2608.978 690.336 C2608.978 694.779 2611.761 697.758 2616.009 697.758 Z" fill="#000000" fill-opacity="1" stroke="none"/>
  </g>
  <g id="Bold-S">
   <path id="路径-28" d="M2360.219 697.514 C2361.83 697.514 2363.539 696.879 2364.662 695.756 L2385.267 674.857 C2386.439 673.686 2387.123 672.123 2387.123 670.561 2387.123 667.094 2384.681 664.799 2381.41 664.799 2379.554 664.799 2378.285 665.58 2377.162 666.703 L2370.277 673.832 2365.785 679.301 2366.224 670.756 2366.224 630.229 C2366.224 626.518 2363.783 624.027 2360.219 624.027 2356.654 624.027 2354.261 626.518 2354.261 630.229 L2354.261 670.756 2354.652 679.301 2355.824 695.756 C2356.947 696.879 2358.607 697.514 2360.219 697.514 Z M2319.691 697.514 C2323.256 697.514 2325.648 695.023 2325.648 691.313 L2325.648 650.785 2325.258 642.24 2324.086 625.785 C2322.963 624.662 2321.302 624.027 2319.691 624.027 2318.08 624.027 2316.371 624.662 2315.297 625.785 L2294.691 646.684 C2293.519 647.855 2292.836 649.418 2292.836 650.932 2292.836 654.398 2295.277 656.742 2298.549 656.742 2300.355 656.742 2301.674 655.961 2302.748 654.838 L2309.681 647.709 2314.125 642.24 2313.734 650.785 2313.734 691.313 C2313.734 695.023 2316.127 697.514 2319.691 697.514 Z" fill="#000000" fill-opacity="1" stroke="none"/>
  </g>
  <g id="Semibold-S">
   <path id="路径-29" d="M2063.26 697.367 C2064.676 697.367 2066.14 696.83 2067.166 695.756 L2088.162 674.369 C2089.187 673.344 2089.773 671.928 2089.773 670.609 2089.773 667.533 2087.674 665.531 2084.744 665.531 2083.181 665.531 2082.01 666.166 2081.082 667.094 L2073.025 675.443 2068.094 681.449 2068.484 672.709 2068.484 629.545 C2068.484 626.371 2066.385 624.174 2063.26 624.174 2060.183 624.174 2058.035 626.371 2058.035 629.545 L2058.035 672.709 2058.474 681.449 2059.402 695.756 C2060.427 696.83 2061.844 697.367 2063.26 697.367 Z M2023.269 697.367 C2026.345 697.367 2028.494 695.17 2028.494 691.996 L2028.494 648.832 2028.054 640.092 2027.127 625.785 C2026.101 624.711 2024.685 624.174 2023.269 624.174 2021.853 624.174 2020.388 624.711 2019.363 625.785 L1998.367 647.172 C1997.342 648.197 1996.756 649.613 1996.756 650.932 1996.756 654.008 1998.904 656.01 2001.785 656.01 2003.396 656.01 2004.519 655.375 2005.447 654.447 L2013.504 646.098 2018.435 640.092 2018.045 648.832 2018.045 691.996 C2018.045 695.17 2020.144 697.367 2023.269 697.367 Z" fill="#000000" fill-opacity="1" stroke="none"/>
  </g>
  <g id="Medium-S">
   <path id="路径-30" d="M1766.336 697.27 C1767.654 697.27 1768.875 696.781 1769.852 695.805 L1791.189 674.027 C1792.068 673.1 1792.605 671.781 1792.605 670.609 1792.605 667.875 1790.701 666.068 1788.064 666.068 1786.697 666.068 1785.672 666.557 1784.842 667.436 L1775.906 676.615 1770.584 683.061 1771.023 674.174 1771.023 629.057 C1771.023 626.225 1769.119 624.271 1766.336 624.271 1763.602 624.271 1761.697 626.225 1761.697 629.057 L1761.697 674.174 1762.137 683.061 1762.869 695.805 C1763.846 696.781 1765.066 697.27 1766.336 697.27 Z M1726.736 697.27 C1729.52 697.27 1731.424 695.316 1731.424 692.484 L1731.424 647.367 1730.984 638.48 1730.252 625.736 C1729.275 624.76 1728.055 624.271 1726.736 624.271 1725.467 624.271 1724.246 624.76 1723.27 625.736 L1701.98 647.514 C1701.053 648.441 1700.516 649.76 1700.516 650.932 1700.516 653.666 1702.42 655.473 1705.057 655.473 1706.424 655.473 1707.449 654.984 1708.279 654.105 L1717.215 644.926 1722.537 638.48 1722.098 647.367 1722.098 692.484 C1722.098 695.316 1724.002 697.27 1726.736 697.27 Z" fill="#000000" fill-opacity="1" stroke="none"/>
  </g>
  <g id="Regular-S">
   <path id="路径-31" d="M1469.396 697.123 C1470.47 697.123 1471.495 696.684 1472.326 695.805 L1494.054 673.539 C1494.835 672.758 1495.275 671.586 1495.275 670.658 1495.275 668.314 1493.663 666.752 1491.417 666.752 1490.245 666.752 1489.415 667.143 1488.732 667.826 L1478.673 678.227 1472.863 685.16 1473.302 676.127 1473.302 628.373 C1473.302 626.078 1471.691 624.418 1469.396 624.418 1467.101 624.418 1465.441 626.078 1465.441 628.373 L1465.441 676.127 1465.88 685.16 1466.417 695.805 C1467.247 696.684 1468.273 697.123 1469.396 697.123 Z M1430.333 697.123 C1432.628 697.123 1434.24 695.463 1434.24 693.168 L1434.24 645.414 1433.8 636.381 1433.263 625.736 C1432.433 624.857 1431.408 624.418 1430.333 624.418 1429.21 624.418 1428.185 624.857 1427.355 625.736 L1405.626 648.002 C1404.894 648.783 1404.406 649.955 1404.406 650.883 1404.406 653.227 1406.017 654.789 1408.312 654.789 1409.435 654.789 1410.265 654.398 1410.949 653.715 L1421.007 643.314 1426.818 636.381 1426.378 645.414 1426.378 693.168 C1426.378 695.463 1428.038 697.123 1430.333 697.123 Z" fill="#000000" fill-opacity="1" stroke="none"/>
  </g>
  <g id="Light-S">
   <path id="路径-32" d="M1172.636 696.781 C1173.466 696.781 1174.248 696.439 1174.882 695.756 L1197.246 673.1 C1197.832 672.514 1198.173 671.684 1198.173 670.951 1198.173 669.145 1196.953 667.973 1195.244 667.973 1194.365 667.973 1193.681 668.266 1193.144 668.803 L1181.816 680.375 1175.273 687.797 1175.664 678.91 1175.664 627.787 C1175.664 626.029 1174.394 624.76 1172.636 624.76 1170.927 624.76 1169.658 626.029 1169.658 627.787 L1169.658 678.91 1170.048 687.797 1170.439 695.756 C1171.074 696.439 1171.806 696.781 1172.636 696.781 Z M1133.574 696.781 C1135.332 696.781 1136.601 695.512 1136.601 693.754 L1136.601 642.631 1136.211 633.744 1135.82 625.785 C1135.185 625.102 1134.404 624.76 1133.574 624.76 1132.744 624.76 1132.011 625.102 1131.377 625.785 L1109.013 648.441 C1108.427 649.027 1108.086 649.857 1108.086 650.59 1108.086 652.396 1109.306 653.568 1111.015 653.568 1111.894 653.568 1112.578 653.275 1113.115 652.738 L1124.443 641.166 1130.986 633.744 1130.595 642.631 1130.595 693.754 C1130.595 695.512 1131.865 696.781 1133.574 696.781 Z" fill="#000000" fill-opacity="1" stroke="none"/>
  </g>
  <g id="Thin-S">
   <path id="路径-33" d="M875.953 696.293 C876.441 696.293 876.881 696.098 877.223 695.756 L900.416 672.563 C900.758 672.221 900.953 671.781 900.953 671.293 900.953 670.268 900.172 669.535 899.195 669.535 898.707 669.535 898.268 669.73 897.975 670.023 L884.889 683.158 877.467 691.068 877.662 682.621 877.662 626.957 C877.662 626.029 876.93 625.248 875.953 625.248 874.928 625.248 874.195 626.029 874.195 626.957 L874.195 682.621 874.44 691.068 874.635 695.756 C875.025 696.098 875.465 696.293 875.953 696.293 Z M836.891 696.293 C837.867 696.293 838.6 695.512 838.6 694.584 L838.6 638.92 838.404 630.473 838.16 625.785 C837.818 625.443 837.379 625.248 836.891 625.248 836.402 625.248 835.963 625.443 835.572 625.785 L812.428 648.979 C812.086 649.32 811.891 649.76 811.891 650.248 811.891 651.273 812.623 652.006 813.6 652.006 814.137 652.006 814.576 651.811 814.869 651.518 L827.906 638.383 835.377 630.473 835.133 638.92 835.133 694.584 C835.133 695.512 835.865 696.293 836.891 696.293 Z" fill="#000000" fill-opacity="1" stroke="none"/>
  </g>
  <g id="Ultralight-S">
   <path id="路径-34" d="M579.218 696.049 C579.56 696.049 579.804 695.951 580.048 695.707 L603.632 672.27 C603.828 672.074 603.974 671.83 603.974 671.488 603.974 670.805 603.437 670.365 602.9 670.365 602.558 670.365 602.216 670.463 602.07 670.658 L588.105 684.623 580.195 692.68 580.292 684.525 580.292 626.566 C580.292 625.98 579.853 625.492 579.218 625.492 578.583 625.492 578.144 625.98 578.144 626.566 L578.144 684.525 578.29 692.68 578.437 695.707 C578.681 695.951 578.876 696.049 579.218 696.049 Z M540.156 696.049 C540.79 696.049 541.23 695.561 541.23 694.975 L541.23 637.016 541.132 628.861 540.986 625.834 C540.742 625.59 540.497 625.492 540.156 625.492 539.814 625.492 539.619 625.59 539.374 625.834 L515.79 649.271 C515.546 649.467 515.449 649.711 515.449 650.053 515.449 650.736 515.937 651.176 516.523 651.176 516.865 651.176 517.158 651.078 517.353 650.883 L531.318 636.918 539.228 628.861 539.081 637.016 539.081 694.975 C539.081 695.561 539.521 696.049 540.156 696.049 Z" fill="#000000" fill-opacity="1" stroke="none"/>
  </g>
 </g>
</svg>
